<svg class="icon" viewBox="0 0 1024 1024" version="1.1" xmlns="http://www.w3.org/2000/svg" width="200" height="200"><path d="M0 512C2.323692 342.291692 31.796513 201.780513 117.970051 117.970051 201.780513 31.796513 342.291692 2.323692 512 0c169.708308 2.323692 310.219487 31.796513 394.029949 117.970051C992.203487 201.780513 1021.676308 342.291692 1024 512c-2.323692 169.708308-31.796513 310.219487-117.970051 394.029949C822.219487 992.203487 681.708308 1021.676308 512 1024c-169.708308-2.323692-310.219487-31.796513-394.029949-117.970051C31.796513 822.219487 2.323692 681.708308 0 512z" ></path><path d="M692.854154 461.640205L399.570051 296.172308C361.682051 274.79959 315.076923 302.578872 315.076923 346.532103v330.935794c0 43.953231 46.605128 71.732513 84.48 50.359795l293.284103-165.467897c38.951385-21.976615 38.951385-78.742974 0-100.71959z"  class="selected" fill="#ffffff"></path></svg>
